<mxfile>
    <diagram id="i35FpFExhuDesCxXWJFf" name="Page-1">
        <mxGraphModel dx="1389" dy="918" grid="1" gridSize="10" guides="1" tooltips="1" connect="1" arrows="1" fold="1" page="1" pageScale="1" pageWidth="850" pageHeight="1100" math="0" shadow="0">
            <root>
                <mxCell id="0"/>
                <mxCell id="1" parent="0"/>
                <mxCell id="1Z1wVsKjZgjDw7HT3Ww5-10" value="" style="whiteSpace=wrap;html=1;aspect=fixed;" parent="1" vertex="1">
                    <mxGeometry x="325" y="100" width="180" height="180" as="geometry"/>
                </mxCell>
                <mxCell id="1Z1wVsKjZgjDw7HT3Ww5-9" value="" style="whiteSpace=wrap;html=1;aspect=fixed;" parent="1" vertex="1">
                    <mxGeometry x="300" y="80" width="180" height="180" as="geometry"/>
                </mxCell>
                <mxCell id="6" value="EC2" style="whiteSpace=wrap;html=1;aspect=fixed;verticalAlign=top;" parent="1" vertex="1">
                    <mxGeometry x="285" y="70" width="170" height="170" as="geometry"/>
                </mxCell>
                <mxCell id="5" value="Application&lt;br&gt;Server" style="rounded=0;whiteSpace=wrap;html=1;" parent="1" vertex="1">
                    <mxGeometry x="310" y="130" width="120" height="60" as="geometry"/>
                </mxCell>
                <mxCell id="7" value="ALB" style="whiteSpace=wrap;html=1;aspect=fixed;verticalAlign=middle;" parent="1" vertex="1">
                    <mxGeometry x="110" y="120" width="80" height="80" as="geometry"/>
                </mxCell>
                <mxCell id="1Z1wVsKjZgjDw7HT3Ww5-7" value="Cache" style="shape=cylinder3;whiteSpace=wrap;html=1;boundedLbl=1;backgroundOutline=1;size=15;" parent="1" vertex="1">
                    <mxGeometry x="620" y="70" width="100" height="100" as="geometry"/>
                </mxCell>
                <mxCell id="1Z1wVsKjZgjDw7HT3Ww5-8" value="Database" style="shape=cylinder3;whiteSpace=wrap;html=1;boundedLbl=1;backgroundOutline=1;size=15;" parent="1" vertex="1">
                    <mxGeometry x="620" y="200" width="100" height="100" as="geometry"/>
                </mxCell>
                <mxCell id="1Z1wVsKjZgjDw7HT3Ww5-11" value="" style="endArrow=classic;html=1;entryX=0;entryY=0.5;entryDx=0;entryDy=0;exitX=1;exitY=0.5;exitDx=0;exitDy=0;" parent="1" source="7" target="5" edge="1">
                    <mxGeometry width="50" height="50" relative="1" as="geometry">
                        <mxPoint x="370" y="590" as="sourcePoint"/>
                        <mxPoint x="420" y="540" as="targetPoint"/>
                    </mxGeometry>
                </mxCell>
                <mxCell id="1Z1wVsKjZgjDw7HT3Ww5-12" value="" style="endArrow=classic;html=1;exitX=1;exitY=0.25;exitDx=0;exitDy=0;entryX=0;entryY=0.5;entryDx=0;entryDy=0;entryPerimeter=0;" parent="1" source="5" target="1Z1wVsKjZgjDw7HT3Ww5-7" edge="1">
                    <mxGeometry width="50" height="50" relative="1" as="geometry">
                        <mxPoint x="200" y="170" as="sourcePoint"/>
                        <mxPoint x="610" y="120" as="targetPoint"/>
                    </mxGeometry>
                </mxCell>
                <mxCell id="1Z1wVsKjZgjDw7HT3Ww5-14" value="" style="endArrow=classic;html=1;exitX=0.983;exitY=0.65;exitDx=0;exitDy=0;exitPerimeter=0;" parent="1" source="5" edge="1">
                    <mxGeometry width="50" height="50" relative="1" as="geometry">
                        <mxPoint x="440" y="155" as="sourcePoint"/>
                        <mxPoint x="620" y="250" as="targetPoint"/>
                    </mxGeometry>
                </mxCell>
                <mxCell id="8" value="EC2(Attacker)" style="whiteSpace=wrap;html=1;aspect=fixed;verticalAlign=top;" vertex="1" parent="1">
                    <mxGeometry x="-100" y="80" width="130" height="130" as="geometry"/>
                </mxCell>
                <mxCell id="9" value="Gatling" style="rounded=0;whiteSpace=wrap;html=1;" vertex="1" parent="1">
                    <mxGeometry x="-87.5" y="135" width="105" height="50" as="geometry"/>
                </mxCell>
                <mxCell id="11" value="" style="endArrow=classic;html=1;entryX=0;entryY=0.5;entryDx=0;entryDy=0;exitX=1;exitY=0.5;exitDx=0;exitDy=0;" edge="1" parent="1" source="9" target="7">
                    <mxGeometry width="50" height="50" relative="1" as="geometry">
                        <mxPoint x="200" y="170" as="sourcePoint"/>
                        <mxPoint x="320" y="170" as="targetPoint"/>
                    </mxGeometry>
                </mxCell>
            </root>
        </mxGraphModel>
    </diagram>
</mxfile>